<svg xmlns="http://www.w3.org/2000/svg" width="15" height="15" viewBox="0 0 31.887 26.63" class="inline-block"><g data-name="Group 2220" fill="#1dc468"><path data-name="Path 3103" d="M10.206 12.068a8.449 8.449 0 00-2.335-.341 7.337 7.337 0 00-2.927.6c.736-2.694 2.5-7.342 6.025-7.866a.837.837 0 00.682-.6l.77-2.753a.836.836 0 00-.692-1.054A5.846 5.846 0 0010.942 0C6.715 0 2.529 4.412.762 10.729c-1.036 3.706-1.34 9.278 1.214 12.785a7.625 7.625 0 006.2 3.115h.033a7.418 7.418 0 002-14.561z"></path><path data-name="Path 3104" d="M30.93 15.572a7.436 7.436 0 00-4.46-3.5 8.449 8.449 0 00-2.334-.341 7.339 7.339 0 00-2.928.6c.736-2.694 2.5-7.342 6.025-7.866a.837.837 0 00.682-.6l.77-2.753a.836.836 0 00-.692-1.054 5.838 5.838 0 00-.787-.054c-4.227 0-8.413 4.412-10.18 10.729-1.037 3.706-1.341 9.278 1.214 12.786a7.624 7.624 0 006.2 3.115h.033a7.418 7.418 0 006.457-11.062z"></path></g></svg>